<svg id="Layer_1" data-name="Layer 1" xmlns="http://www.w3.org/2000/svg" viewBox="0 0 855 555.66"><defs><style>.cls-1{fill:none;stroke:#f48f34;stroke-linecap:round;stroke-linejoin:round;stroke-width:5px;}</style></defs><title>Protea Outline (CompoundPath-Export)</title><path class="cls-1" d="M2.5,253.89l89,43.76,69.08,132.82L34.76,344.35Zm850,0-89,43.76L694.38,430.47l125.86-86.12,32.26-90.46M428,552.51q-115.44-187-230.86-374H658.88L428,552.51l.63.65L642.83,428.92Q535.75,252.26,428.65,75.62L215.77,428.92,428.65,553.16M702.57,311.4l78.18-155.57L661.16,177.45l1.56,1.05q-29.78-88-59.53-176L431.07,75h-.27L661.16,178.5l41.42,133.3L643.05,428.27l-.85,1.3L428.88,332.29l-213.75,96L155.6,311.8,197,178.5,427.37,75h1.29L256.54,2.5,197,178.5v-.65L77.42,156.23,155.6,311.8"/></svg>