<?xml version="1.0" encoding="utf-8"?>
<!-- Generator: Adobe Illustrator 23.0.1, SVG Export Plug-In . SVG Version: 6.00 Build 0)  -->
<svg version="1.1" id="Layer_1" xmlns="http://www.w3.org/2000/svg" xmlns:xlink="http://www.w3.org/1999/xlink" x="0px" y="0px"
	 viewBox="0 0 897.6 526" style="enable-background:new 0 0 897.6 526;" xml:space="preserve">
<style type="text/css">
	.st0{clip-path:url(#SVGID_2_);}
	.st1{clip-path:url(#SVGID_4_);}
</style>
<title>Protea Gather</title>
<g>
	<g id="Layer_1-2">
		<g>
			<defs>
				<path id="SVGID_1_" d="M109,358.6c-18.4-18.2-46-23.6-69.8-13.5c-7.5,3.2-14.3,7.8-20.2,13.5c-5.9,5.8-10.7,12.7-13.9,20.3
					c-6.8,16-6.8,34.2,0,50.2c3.3,7.6,8,14.4,13.9,20.1c5.9,5.7,12.7,10.2,20.2,13.5c7.8,3.3,16.1,5,24.6,5
					c10.2,0.1,20.4-2.3,29.4-7.1c4.2-2.3,8.2-5,11.8-8v9.7c0,5.5-1,10.9-3.1,16c-2,4.9-4.9,9.3-8.6,13c-3.8,3.8-8.3,6.8-13.2,8.9
					c-10.3,4.3-22,4.3-32.3,0c-9.9-4.2-17.8-12.1-22-22.1c-2.2-5-3.3-10.4-3.3-15.9c0-3-2.4-5.4-5.4-5.5c0,0,0,0,0,0H5.4
					c-3,0-5.4,2.5-5.4,5.5c0,0,0,0,0,0c0,8.5,1.7,16.9,5.1,24.6c6.7,15.2,18.8,27.3,34,34c7.7,3.4,16.1,5.2,24.6,5.1
					c17.1,0,33.4-6.8,45.3-19c5.7-5.9,10.2-12.7,13.5-20.2c3.3-7.8,5-16.1,5-24.6v-58.3C127.6,386.9,120.9,370.6,109,358.6z
					 M47.9,441.8c-9.9-4.2-17.8-12.1-22-22c-4.4-10.1-4.4-21.7,0-31.8c4.2-9.9,12.1-17.8,22-22c5-2.2,10.4-3.3,15.9-3.3
					c5.6-0.1,11.2,1.1,16.4,3.3c4.9,2.1,9.4,5.1,13.2,8.9c3.7,3.7,6.6,8.1,8.6,13c4.1,10.3,4.1,21.7,0,32c-2,4.9-4.9,9.3-8.6,13
					c-3.8,3.8-8.2,6.8-13.2,8.9C69.8,446.1,58.2,446.1,47.9,441.8z M263,358.6c-5.8-5.8-12.7-10.4-20.3-13.5
					c-16.1-6.6-34.1-6.6-50.1,0c-32.5,13.7-47.7,51-34.1,83.5c10,23.8,33.4,39.2,59.2,39.1c10.1,0,20-2.4,28.9-7
					c4.4-2.3,8.6-5,12.4-8.2v9.8c0,3,2.4,5.4,5.4,5.4l0,0h11.7c3,0,5.4-2.4,5.5-5.4c0,0,0,0,0,0v-58.3
					C281.6,386.9,275,370.6,263,358.6z M259,403.9c0,5.5-1.1,10.9-3.3,15.9c-4.2,9.9-12.1,17.8-22.1,22c-10.2,4.3-21.6,4.3-31.8,0
					c-9.9-4.2-17.8-12.1-22-22c-4.4-10.1-4.4-21.7,0-31.8c4.2-9.9,12.1-17.8,22-22c10.2-4.4,21.6-4.4,31.8,0
					c9.9,4.2,17.8,12.1,22.1,22C257.9,393,259.1,398.4,259,403.9z M435.6,403.9c0.1,8.7-1.7,17.2-5.1,25.2
					c-3.3,7.6-8,14.4-13.9,20.1c-5.9,5.7-12.7,10.2-20.2,13.5c-7.8,3.3-16.1,5-24.6,5c-35,0.3-63.5-27.8-63.8-62.8c0-0.3,0-0.6,0-1
					V328c0-3,2.4-5.4,5.5-5.4h11.7c3,0,5.4,2.4,5.5,5.4v35.4h26.1c3,0,5.4,2.4,5.4,5.4l0,0v11.7c0,3-2.4,5.4-5.4,5.4h-26.1v17.9
					c0,5.5,1.1,10.9,3.3,15.9c4.2,9.9,12.1,17.8,22,22c10.2,4.3,21.6,4.3,31.8,0c9.9-4.2,17.8-12.1,22-22c2.2-5,3.3-10.4,3.3-15.9
					c0-3,2.4-5.4,5.4-5.5h11.7C433.1,398.4,435.6,400.9,435.6,403.9L435.6,403.9z M584.4,379.2c3.4,7.8,5.2,16.1,5.1,24.6v58.3
					c0,3-2.4,5.4-5.4,5.4c0,0,0,0,0,0h-11.7c-3,0-5.4-2.4-5.5-5.4c0,0,0,0,0,0v-58.3c0-5.5-1.1-10.9-3.3-15.9
					c-4.2-9.9-12.1-17.8-22-22c-10.2-4.4-21.6-4.4-31.8,0c-9.9,4.2-17.8,12.1-22,22c-2.2,5-3.3,10.4-3.3,15.9v58.3
					c0,3-2.4,5.4-5.4,5.4c0,0,0,0,0,0h-11.7c-3,0-5.4-2.4-5.4-5.4l0,0V324.5c0-3,2.4-5.4,5.4-5.5h11.7c3,0,5.4,2.4,5.4,5.4
					c0,0,0,0,0,0v30.7c3.6-3.1,7.6-5.8,11.8-8c9.1-4.8,19.2-7.2,29.4-7.1c8.5,0,16.9,1.7,24.6,5.1
					C565.6,352,577.7,364.1,584.4,379.2L584.4,379.2z M725,358.6c-5.8-5.8-12.7-10.4-20.3-13.5c-16.1-6.6-34.1-6.6-50.1,0
					c-32.5,13.7-47.7,51-34.1,83.5c10,23.8,33.4,39.2,59.2,39.1c6.9,0,13.8-1.2,20.3-3.5c6.3-2.2,12.2-5.3,17.6-9.2
					c5.4-3.9,10.1-8.6,14-14c4-5.4,6.5-8,8.7-14.5c0.6-1.7,0.4-2.4-0.1-2.9c-1.1-1.3-2.7-2.1-4.4-2.3H723c-2.2,0-4.2,1.4-5,3.4
					c-3.2,7.9-8.1,8.8-14.9,13.5c-11.2,7.5-25.3,9-37.9,4.2c-4.6-1.8-8.8-4.4-12.6-7.6c-3.7-3.2-6.8-7-9.1-11.3
					c-1.4-2.6-2.6-5.4-3.5-8.3h98.2c3,0,5.4-2.4,5.5-5.4v-5.8C743.6,386.9,737,370.6,725,358.6z M719.6,392.6H640
					c0.9-2.8,2-5.6,3.4-8.2c2.3-4.3,5.4-8.2,9.1-11.4c3.8-3.2,8-5.7,12.6-7.6c9.4-3.7,19.8-3.7,29.2,0c4.6,1.8,8.9,4.4,12.7,7.6
					c3.7,3.2,6.8,7.1,9.2,11.4C717.6,387,718.7,389.8,719.6,392.6L719.6,392.6z M897.6,403.9c0,3-2.4,5.4-5.4,5.4l0,0h-11.7
					c-3,0-5.4-2.4-5.4-5.4c0-5.5-1.1-10.9-3.3-15.9c-4.2-9.9-12.1-17.8-22-22c-10.2-4.3-21.6-4.3-31.8,0c-9.9,4.3-17.8,12.1-22,22
					c-2.2,5-3.3,10.4-3.3,15.9v58.3c0,3-2.4,5.4-5.4,5.4c0,0,0,0,0,0h-11.7c-3,0-5.4-2.4-5.5-5.4c0,0,0,0,0,0v-58.3
					c-0.3-25.6,15-48.9,38.7-58.8c15.9-6.6,33.8-6.6,49.7,0c7.5,3.2,14.3,7.8,20.2,13.5c5.9,5.8,10.7,12.7,13.9,20.3
					C895.9,386.7,897.6,395.3,897.6,403.9z"/>
			</defs>
			<clipPath id="SVGID_2_">
				<use xlink:href="#SVGID_1_"  style="overflow:visible;"/>
			</clipPath>
			<g class="st0">
				
					<image style="overflow:visible;enable-background:new    ;" width="933" height="222" xlink:href="D58B6676014A7947.png"  transform="matrix(1 0 0 1 -22.8901 312.14)">
				</image>
			</g>
		</g>
		<g>
			<defs>
				<path id="SVGID_3_" d="M282.5,153.4l35.5,68.3l-64.7-44.3l-16.6-46.6L282.5,153.4z M615,153.4l-35.5,68.4l64.8-44.4
					c5.5-15.5,11.1-31,16.6-46.6L615,153.4z M591.1,161.8L591.1,161.8l41.5-80.2l-62,9.8c-10-30.5-20-61-30-91.5l-94.1,36.6L357.7,0
					l-30.1,91.4l-62.7-9.2l70.5,139.8l111.7,66l0,0l112.4-65.3l0,0L591.1,161.8z"/>
			</defs>
			<clipPath id="SVGID_4_">
				<use xlink:href="#SVGID_3_"  style="overflow:visible;"/>
			</clipPath>
			<g class="st1">
				
					<image style="overflow:visible;enable-background:new    ;" width="498" height="323" xlink:href="D58B6676014A7945.png"  transform="matrix(1 0 0 1 193.1099 -29.86)">
				</image>
			</g>
		</g>
	</g>
</g>
</svg>
