<?xml version="1.0" encoding="utf-8"?>
<!-- Generator: Adobe Illustrator 23.0.1, SVG Export Plug-In . SVG Version: 6.00 Build 0)  -->
<svg version="1.1" id="Layer_1" xmlns="http://www.w3.org/2000/svg" xmlns:xlink="http://www.w3.org/1999/xlink" x="0px" y="0px"
	 viewBox="0 0 698.9 120.84" style="enable-background:new 0 0 698.9 120.84;" xml:space="preserve">
<style type="text/css">
	.st0{fill:#FFFFFF;}
</style>
<path class="st0" d="M88.18,40.83c0,10.47-4.08,20.31-11.48,27.71c-7.4,7.4-17.25,11.48-27.71,11.48H14.7v39.19H0V1.64h48.99
	c10.47,0,20.32,4.08,27.71,11.48C84.1,20.51,88.18,30.36,88.18,40.83 M73.49,40.83c0-6.55-2.55-12.69-7.17-17.33
	c-4.64-4.62-10.78-7.17-17.33-7.17H14.7v48.99h34.29c6.55,0,12.69-2.55,17.33-7.17C70.94,53.51,73.49,47.38,73.49,40.83"/>
<path class="st0" d="M174.92,77.72l25.93,41.49h-17.33l-24.5-39.19h-31.66v39.19h-14.7V1.63h48.99c10.47,0,20.32,4.08,27.71,11.48
	c7.4,7.4,11.48,17.24,11.48,27.71c0,10.47-4.08,20.31-11.48,27.71C185.23,72.69,180.3,75.8,174.92,77.72 M161.66,65.32
	c6.55,0,12.69-2.55,17.33-7.17c4.62-4.64,7.17-10.78,7.17-17.33c0-6.55-2.55-12.69-7.17-17.33c-4.64-4.62-10.78-7.17-17.33-7.17
	h-34.29v48.99H161.66z"/>
<path class="st0" d="M346.19,60.42c0,16.68-6.76,31.79-17.7,42.72c-10.93,10.93-26.04,17.7-42.72,17.7
	c-16.68,0-31.79-6.76-42.73-17.7c-10.93-10.93-17.7-26.04-17.7-42.72c0-16.69,6.76-31.79,17.7-42.73C253.97,6.76,269.08,0,285.77,0
	c16.68,0,31.79,6.76,42.72,17.7C339.42,28.63,346.19,43.74,346.19,60.42 M331.49,60.42c0-12.21-4.76-23.69-13.39-32.33
	c-8.64-8.64-20.12-13.39-32.33-13.39c-12.21,0-23.7,4.76-32.33,13.39c-8.63,8.64-13.39,20.12-13.39,32.33
	c0,12.21,4.76,23.69,13.39,32.33c8.64,8.63,20.12,13.39,32.33,13.39c12.21,0,23.69-4.76,32.33-13.39
	C326.73,84.12,331.49,72.64,331.49,60.42"/>
<polygon class="st0" points="450.69,1.63 450.69,16.33 413.95,16.33 413.95,119.21 399.25,119.21 399.25,16.33 362.51,16.33 
	362.51,1.63 "/>
<polygon class="st0" points="489.88,16.33 489.88,45.73 542.13,45.73 542.13,60.42 489.88,60.42 489.88,104.51 556.83,104.51 
	556.83,119.21 475.18,119.21 475.18,1.64 556.83,1.64 556.83,16.33 "/>
<path class="st0" d="M698.9,119.21h-16.04l-13.11-29.98l-72.39,29.98h-16.04L632.76,1.63h14.7L698.9,119.21z M663.85,75.77
	l-23.74-54.27l-34.25,78.29L663.85,75.77z"/>
</svg>
