<svg xmlns="http://www.w3.org/2000/svg" width="1005.92714" height="758.89757" viewBox="0 0 1005.92714 758.89757"><title>ProteaGatherIntro</title><path d="M503.52369,37.51168q-51.69378,85.79421-103.388,171.5889l103.388,60.33841L607.5421,209.10058Q555.53215,123.30565,503.52369,37.51168Z" fill="none" stroke="#fff" stroke-linecap="round" stroke-linejoin="round" stroke-width="4"/><polyline points="607.237 209.414 503.634 162.17 399.821 208.786 370.909 152.218 391.022 87.48 502.901 37.198" fill="none" stroke="#fff" stroke-linecap="round" stroke-linejoin="round" stroke-width="4"/><polyline points="607.647 208.786 636.56 152.218 616.447 87.48 504.569 37.198" fill="none" stroke="#fff" stroke-linecap="round" stroke-linejoin="round" stroke-width="4"/><path d="M503.2147,269.125q56.06041-90.80922,112.11984-181.61842H391.09487Q447.15526,178.31578,503.2147,269.125Z" fill="none" stroke="#fff" stroke-linecap="round" stroke-linejoin="round" stroke-width="4"/><polyline points="391.022 87.48 419.934 2 503.529 37.197" fill="none" stroke="#fff" stroke-linecap="round" stroke-linejoin="round" stroke-width="4"/><path d="M617.2037,87.48Q602.74655,44.74022,588.2914,2L504.69677,37.19732" fill="none" stroke="#fff" stroke-linecap="round" stroke-linejoin="round" stroke-width="4"/><path d="M370.90935,152.21847q-18.98477-37.77718-37.96855-75.55438,29.041,5.251,58.08151,10.50159" fill="none" stroke="#fff" stroke-linecap="round" stroke-linejoin="round" stroke-width="4"/><path d="M296.55471,124.09243l43.24047,21.25187q16.77592,32.25369,33.55236,64.50786l-61.12713-41.82474Z" fill="none" stroke="#fff" stroke-linecap="round" stroke-linejoin="round" stroke-width="4"/><polygon points="709.372 124.092 666.132 145.344 632.58 209.852 693.707 168.027 709.372 124.092" fill="none" stroke="#fff" stroke-linecap="round" stroke-linejoin="round" stroke-width="4"/><path d="M636.5545,152.02591Q655.53925,114.24873,674.523,76.472q-29.041,5.25031-58.08151,10.5011" fill="none" stroke="#fff" stroke-linecap="round" stroke-linejoin="round" stroke-width="4"/><path d="M212.23161,382.65646a43.61538,43.61538,0,0,1-43.61375,43.612H130.45717v43.61374h-16.3556V339.04449h54.51629a43.61538,43.61538,0,0,1,43.61375,43.612Zm-16.3556,0a27.2392,27.2392,0,0,0-27.25815-27.25815H130.45717V409.9146h38.16069A27.23918,27.23918,0,0,0,195.876,382.65646Z" fill="#fff"/><path d="M308.75394,423.70782l28.857,46.17435H318.32916L291.071,426.26843H255.83648v43.61374h-16.3556V339.04449h54.51629a43.622,43.622,0,0,1,14.75677,84.66333ZM293.99717,409.9146a27.25815,27.25815,0,1,0,0-54.51629H255.83648V409.9146Z" fill="#fff"/><path d="M499.33382,404.46333a67.23759,67.23759,0,1,1-19.69343-47.54427A67.02376,67.02376,0,0,1,499.33382,404.46333Zm-16.35559,0a50.88261,50.88261,0,1,0-14.90228,35.978A50.55992,50.55992,0,0,0,482.97823,404.46333Z" fill="#fff"/><path d="M615.62767,339.04449v16.35382h-40.8881V469.88217H558.38575V355.39831H517.49764V339.04449Z" fill="#fff"/><path d="M659.23255,355.39831v32.70942H717.383v16.3556H659.23255v49.06324h74.50429v16.3556H642.877V339.04449h90.85989v16.35382Z" fill="#fff"/><path d="M891.82557,469.88217H873.98116L859.38765,436.518,778.8323,469.88217H760.98612L818.228,339.04449h16.3556ZM852.82731,421.5447l-26.42058-60.38635-38.10746,87.11747Z" fill="#fff"/><path d="M122.19084,571.33488A71.72538,71.72538,0,0,0,43.9205,556.19409,75.31192,75.31192,0,0,0,21.327,571.27883,70.60468,70.60468,0,0,0,5.73793,594.018,70.74332,70.74332,0,0,0,21.327,672.87113a75.21066,75.21066,0,0,0,22.61592,15.07356,68.82282,68.82282,0,0,0,27.53583,5.60355A68.61,68.61,0,0,0,104.45,685.636a76.84671,76.84671,0,0,0,13.22438-9.0217v10.83728a46.9803,46.9803,0,0,1-3.463,17.93135,44.24585,44.24585,0,0,1-9.64931,14.56922,48.1916,48.1916,0,0,1-14.73733,9.97435,46.45031,46.45031,0,0,1-60.87693-24.72285,44.13345,44.13345,0,0,1-3.67593-17.80809,6.09666,6.09666,0,0,0-6.08543-6.10788H6.08534A6.10786,6.10786,0,0,0,.03351,687.4511v.00048a67.5339,67.5339,0,0,0,5.74924,27.58067,74.85213,74.85213,0,0,0,38.10413,38.10412,67.39917,67.39917,0,0,0,27.58066,5.76047,70.76161,70.76161,0,0,0,50.79054-21.29348,75.08787,75.08787,0,0,0,15.08476-22.61591,68.72192,68.72192,0,0,0,5.60355-27.52462V622.08061A71.80386,71.80386,0,0,0,122.19084,571.33488ZM53.64825,664.60033A47.01374,47.01374,0,0,1,28.93661,639.8887a45.03008,45.03008,0,0,1,0-35.63855,46.94647,46.94647,0,0,1,24.71164-24.65561,43.99932,43.99932,0,0,1,17.81928-3.67592,45.47865,45.47865,0,0,1,18.33481,3.6647,48.01076,48.01076,0,0,1,14.74853,9.98553,44.25667,44.25667,0,0,1,9.64931,14.56922,48.19048,48.19048,0,0,1,0,35.86271A44.07782,44.07782,0,0,1,104.55087,654.57a47.86509,47.86509,0,0,1-14.73733,9.97431A46.53193,46.53193,0,0,1,53.64825,664.60033ZM294.7801,571.33488a71.31062,71.31062,0,0,0-22.71677-15.16319,73.75388,73.75388,0,0,0-56.16995,0A71.47884,71.47884,0,0,0,244.0456,693.53705a69.5963,69.5963,0,0,0,32.36609-7.845,76.67947,76.67947,0,0,0,13.88557-9.20105v10.94932a6.09668,6.09668,0,0,0,6.09666,6.09666h13.0787a6.09668,6.09668,0,0,0,6.10788-6.08544v-65.371A71.72548,71.72548,0,0,0,294.7801,571.33488Zm-4.48284,50.74573a43.97659,43.97659,0,0,1-3.67592,17.80809,47.01386,47.01386,0,0,1-24.71165,24.71163,45.26544,45.26544,0,0,1-35.62735,0,46.91281,46.91281,0,0,1-24.6556-24.71163,45.03,45.03,0,0,1,0-35.63855,46.969,46.969,0,0,1,24.6556-24.65561,45.08619,45.08619,0,0,1,35.63857,0,47.01386,47.01386,0,0,1,24.71165,24.71163A44.08928,44.08928,0,0,1,290.29726,622.08061Zm197.87246,0a69.67437,69.67437,0,0,1-5.738,28.20827,71.32231,71.32231,0,0,1-15.58907,22.58229,75.21059,75.21059,0,0,1-22.61591,15.07355,68.8228,68.8228,0,0,1-27.53584,5.60355,70.92967,70.92967,0,0,1-71.47874-70.37637q-.00426-.54564-.0001-1.09129V537.07479a6.1079,6.1079,0,0,1,6.10788-6.09666h13.06747a6.1079,6.1079,0,0,1,6.10788,6.09666V576.7479H399.701a6.09666,6.09666,0,0,1,6.09666,6.09666h0v13.07869a6.10788,6.10788,0,0,1-6.09666,6.09667H370.46161v20.06069a43.94288,43.94288,0,0,0,3.67592,17.80809,46.913,46.913,0,0,0,24.71163,24.71163,45.26549,45.26549,0,0,0,35.62737,0,47.01375,47.01375,0,0,0,24.71163-24.71163,44.1671,44.1671,0,0,0,3.69836-17.80809,6.1079,6.1079,0,0,1,6.09666-6.10788h13.0787a6.09664,6.09664,0,0,1,6.07422,6.10788Zm166.80643-27.5919a67.44522,67.44522,0,0,1,5.76046,27.59186v65.371A6.09664,6.09664,0,0,1,654.64,693.5482H641.56122a6.09672,6.09672,0,0,1-6.10788-6.08544V622.08061a44.08874,44.08874,0,0,0-3.676-17.83049,47.06969,47.06969,0,0,0-24.65561-24.71163,45.19816,45.19816,0,0,0-35.63855,0,46.868,46.868,0,0,0-24.6556,24.6556,44.09947,44.09947,0,0,0-3.68715,17.8305v65.371a6.08546,6.08546,0,0,1-6.07422,6.09666H523.87554a6.09667,6.09667,0,0,1-6.09666-6.09666h0V533.16349a6.1079,6.1079,0,0,1,6.09666-6.10788h13.0787a6.09665,6.09665,0,0,1,6.09666,6.09666v34.38339A76.30762,76.30762,0,0,1,556.28648,558.57a68.67708,68.67708,0,0,1,32.97125-7.92343,67.43331,67.43331,0,0,1,27.58064,5.76047,74.77374,74.77374,0,0,1,38.10412,38.10412Zm157.57172-23.15383a71.165,71.165,0,0,0-22.7168-15.152,73.70892,73.70892,0,0,0-56.17,0,71.47884,71.47884,0,0,0,28.16344,137.36536,67.70136,67.70136,0,0,0,22.70558-3.87768A77.32916,77.32916,0,0,0,804.25459,679.304a72.44252,72.44252,0,0,0,15.68993-15.68993c4.48284-6.05183,7.23981-9.0217,9.69417-16.20545.63881-1.8716.41466-2.63368-.1009-3.27249a7.31814,7.31814,0,0,0-4.96473-2.55521H810.23921a6.10784,6.10784,0,0,0-5.65957,3.82162c-3.5975,8.89843-9.04413,9.80621-16.65372,15.07355a46.5431,46.5431,0,0,1-42.49729,4.71818,51.08209,51.08209,0,0,1-14.13213-8.52858,44.71658,44.71658,0,0,1-10.24337-12.67526,48.08777,48.08777,0,0,1-3.86646-9.26825H827.22914a6.10788,6.10788,0,0,0,6.10788-6.09666v-6.53372A71.87112,71.87112,0,0,0,812.54787,571.33488ZM806.44,609.439H717.28757a50.86759,50.86759,0,0,1,3.844-9.18983,44.27911,44.27911,0,0,1,10.22087-12.7649,51.55256,51.55256,0,0,1,14.08732-8.495,44.99632,44.99632,0,0,1,32.72473,0,50.92508,50.92508,0,0,1,14.21059,8.495,44.05472,44.05472,0,0,1,10.25452,12.79852,50.43209,50.43209,0,0,1,3.844,9.15621Zm199.48628,12.6416a6.09664,6.09664,0,0,1-6.09666,6.09666H986.751a6.10787,6.10787,0,0,1-6.09666-6.09666,44.08874,44.08874,0,0,0-3.676-17.83049,47.01372,47.01372,0,0,0-24.71163-24.71163,45.25414,45.25414,0,0,0-35.63855,0,47.01366,47.01366,0,0,0-24.65561,24.71163,44.09985,44.09985,0,0,0-3.66474,17.81927v65.371a6.09664,6.09664,0,0,1-6.09666,6.09666H869.07646a6.09671,6.09671,0,0,1-6.10788-6.08544v-65.371a70.70546,70.70546,0,0,1,43.31544-65.8977,72.42032,72.42032,0,0,1,55.69928,0,75.177,75.177,0,0,1,22.61591,15.08473,70.60435,70.60435,0,0,1,15.589,22.73921A69.842,69.842,0,0,1,1005.92627,622.08061Z" fill="#fff"/></svg>